<svg width="128" height="128" viewBox="0 0 128 128" fill="none" xmlns="http://www.w3.org/2000/svg">
<g clip-path="url(#clip0_149_29)">
<path d="M107.228 126.035C104.903 126.035 103.018 124.15 103.018 121.824V114.807C103.018 112.482 104.903 110.596 107.228 110.596C109.553 110.596 111.438 112.482 111.438 114.807V121.824C111.438 124.15 109.553 126.035 107.228 126.035Z" fill="#2C6991"/>
<path d="M107.228 126.035C104.903 126.035 103.018 124.15 103.018 121.824V114.807C103.018 112.482 104.903 110.596 107.228 110.596V126.035Z" fill="#528FB3"/>
<path d="M31.7192 1.96503C24.9087 1.96503 19.3682 7.50553 19.3682 14.316V62.5968C19.3682 64.922 21.2535 66.8073 23.5787 66.8073C25.904 66.8073 27.7892 64.922 27.7892 62.5968V51.1993V14.3158C27.7892 12.1488 29.552 10.386 31.719 10.386C33.886 10.386 35.6487 12.1488 35.6487 14.3158V18.5263C35.6487 20.3385 36.7957 21.8788 38.4015 22.472C38.8562 22.6403 39.3457 22.7368 39.8592 22.7368C42.1845 22.7368 44.0697 20.8515 44.0697 18.5263V14.3158C44.0702 7.50553 38.5297 1.96503 31.7192 1.96503Z" fill="#4AD0FF"/>
<path d="M21.0527 126.035C18.7275 126.035 16.8423 124.15 16.8423 121.824V114.807C16.8423 112.482 18.7275 110.596 21.0527 110.596C23.378 110.596 25.2633 112.482 25.2633 114.807V121.824C25.2633 124.15 23.378 126.035 21.0527 126.035Z" fill="#2C6991"/>
<path d="M21.0527 126.035C18.7275 126.035 16.8423 124.15 16.8423 121.824V114.807C16.8423 112.482 18.7275 110.596 21.0527 110.596V126.035Z" fill="#528FB3"/>
<path d="M115.017 72.1403H12.983C10.6577 72.1403 8.70175 74.0515 8.70175 76.377V95.0038C8.70175 109.119 20.256 120.702 34.3712 120.702H93.6285C107.744 120.702 119.298 109.119 119.298 95.0038V76.377C119.298 74.0518 117.342 72.1403 115.017 72.1403Z" fill="#4AD0FF"/>
<path d="M64 72.1403H12.983C10.6577 72.1403 8.70175 74.0515 8.70175 76.377V95.0038C8.70175 109.119 20.256 120.702 34.3712 120.702H64V72.1403Z" fill="#99E5FF"/>
<path d="M128 67.5215C128 63.2512 124.538 59.7895 120.268 59.7895H7.732C3.4615 59.7895 0 63.251 0 67.5215V72.8295C0 77.0997 3.4615 80.5615 7.732 80.5615H120.268C124.538 80.5615 128 77.1 128 72.8295V67.5215H128Z" fill="#2C6991"/>
<path d="M44.351 27.228H35.93C33.6047 27.228 31.7195 25.3428 31.7195 23.0175C31.7195 20.6923 33.6047 18.807 35.93 18.807H44.351C46.6762 18.807 48.5615 20.6923 48.5615 23.0175C48.5615 25.3428 46.6762 27.228 44.351 27.228Z" fill="#2C6991"/>
<path d="M39.8597 27.228H35.93C33.6047 27.228 31.7195 25.3428 31.7195 23.0175C31.7195 20.6923 33.6047 18.807 35.93 18.807H39.8597V27.228Z" fill="#528FB3"/>
</g>
<defs>
<clipPath id="clip0_149_29">
<rect width="128" height="128" fill="white"/>
</clipPath>
</defs>
</svg>
