<svg width="128" height="128" viewBox="0 0 128 128" fill="none" xmlns="http://www.w3.org/2000/svg">
<path d="M118.961 62.408V29.2431C118.961 25.2368 115.713 21.9891 111.707 21.9891H16.2924C12.2861 21.9891 9.03833 25.2368 9.03833 29.2431V62.408" fill="#DD852C"/>
<path d="M20.4129 21.9891H16.2924C12.2861 21.9891 9.03833 25.2368 9.03833 29.2431V62.408H13.1588V29.2431C13.1588 25.2368 16.4066 21.9891 20.4129 21.9891Z" fill="#C67022"/>
<path d="M57.3628 50.2615C55.9413 53.087 53.931 55.5653 51.491 57.5253C47.7237 60.5655 42.9322 62.3845 37.7139 62.3845C29.1199 62.3845 21.6824 57.4488 18.0681 50.2615C20.4226 45.576 24.4049 41.8497 29.2699 39.8189C31.8687 38.7359 34.7207 38.1384 37.7139 38.1384C46.311 38.1384 53.7485 43.0742 57.3628 50.2615Z" fill="#CCCCCC"/>
<path d="M90.2854 38.1375C81.6904 38.1375 74.2526 43.0727 70.6376 50.261C74.2528 57.4495 81.6904 62.3845 90.2854 62.3845C98.8804 62.3845 106.318 57.4493 109.933 50.261C106.318 43.0727 98.8804 38.1375 90.2854 38.1375Z" fill="#CCCCCC"/>
<path d="M57.3628 50.2615C55.9413 53.087 53.931 55.5652 51.491 57.5253C50.7287 57.6165 49.9517 57.6608 49.166 57.6608C38.8472 57.6608 30.3529 49.8525 29.2699 39.8189C31.8687 38.7359 34.7207 38.1384 37.7139 38.1384C46.311 38.1384 53.7485 43.0742 57.3628 50.2615Z" fill="#E6E6E6"/>
<path d="M109.933 50.2615C108.512 53.087 106.502 55.5652 104.062 57.5253C103.299 57.6165 102.522 57.6608 101.737 57.6608C91.4179 57.6608 82.9236 49.8525 81.8406 39.8189C84.4393 38.7359 87.2913 38.1384 90.2846 38.1384C98.8816 38.1384 106.319 43.0742 109.933 50.2615Z" fill="#E6E6E6"/>
<path d="M118.438 62.0908H9.56227C6.13376 62.0908 3.35425 64.8703 3.35425 68.2988V78.5336H124.647V68.2988C124.646 64.8701 121.867 62.0908 118.438 62.0908Z" fill="#E6E6E6"/>
<path d="M19.4368 62.0905H9.56227C6.13376 62.0905 3.35425 64.87 3.35425 68.2985V78.5333H13.229V68.2985C13.2288 64.87 16.0083 62.0905 19.4368 62.0905Z" fill="#CCCCCC"/>
<path d="M118.078 94.0917H106.158V106.011H118.078V94.0917Z" fill="#DD852C"/>
<path d="M21.8408 94.0917H9.92151V106.011H21.8408V94.0917Z" fill="#DD852C"/>
<path d="M118.078 94.0917H106.158V97.9267H118.078V94.0917Z" fill="#C67022"/>
<path d="M21.8408 94.0917H9.92151V97.9267H21.8408V94.0917Z" fill="#C67022"/>
<path d="M128 77.9451H0V94.3876H128V77.9451Z" fill="#DD852C"/>
</svg>
