<svg width="128" height="128" viewBox="0 0 128 128" fill="none" xmlns="http://www.w3.org/2000/svg">
<g clip-path="url(#clip0_140_33)">
<path d="M64.2901 128H63.7099C28.5239 128 0 99.4761 0 64.2901C0 29.104 28.5239 0.580261 63.7096 0.580261H64.2899C99.4758 0.580261 128 29.104 128 64.2899C128 99.4761 99.4758 128 64.2901 128Z" fill="#CAEEC5"/>
<path d="M10.1687 56.2729H66.8139V128H10.1687V56.2729Z" fill="#981700"/>
<path d="M64.0311 56.2729H117.894V128H64.0311V56.2729Z" fill="#5B7F81"/>
<path d="M47.0509 71.6399C47.0509 72.8636 46.0542 73.8559 44.8249 73.8559H29.3754C28.1462 73.8559 27.1494 72.8636 27.1494 71.6399C27.1494 70.4161 28.1462 69.4239 29.3754 69.4239H44.8249C46.0542 69.4239 47.0509 70.4161 47.0509 71.6399Z" fill="#7A1700"/>
<path d="M78.1383 83.9568H103.785V114.134H78.1383V83.9568Z" fill="#234848"/>
<path d="M80.8776 71.6399C80.8776 72.8636 79.8808 73.8559 78.6516 73.8559H78.1386C76.9093 73.8559 75.9126 72.8636 75.9126 71.6399C75.9126 70.4161 76.9093 69.4239 78.1386 69.4239H78.6516C79.8808 69.4239 80.8776 70.4161 80.8776 71.6399ZM90.9618 69.4239H90.4481C89.2188 69.4239 88.2221 70.4161 88.2221 71.6399C88.2221 72.8636 89.2188 73.8559 90.4481 73.8559H90.9618C92.1911 73.8559 93.1878 72.8636 93.1878 71.6399C93.1878 70.4161 92.1913 69.4239 90.9618 69.4239ZM103.785 69.4239H103.271C102.042 69.4239 101.045 70.4161 101.045 71.6399C101.045 72.8636 102.042 73.8559 103.271 73.8559H103.785C105.014 73.8559 106.011 72.8636 106.011 71.6399C106.011 70.4161 105.014 69.4239 103.785 69.4239Z" fill="#415E5C"/>
<path d="M66.3086 2.79601C66.3086 4.01976 65.3119 5.01201 64.0826 5.01201H10.1165C8.88724 5.01201 7.89049 4.01976 7.89049 2.79601C7.89049 1.57227 8.88724 0.580017 10.1165 0.580017H64.0824C65.3119 0.580267 66.3086 1.57227 66.3086 2.79601Z" fill="#663310"/>
<path d="M26.4204 2.79601V23.8677C26.4204 25.0915 25.4237 26.0837 24.1944 26.0837C22.9652 26.0837 21.9684 25.0915 21.9684 23.8677V2.79601C21.9684 1.57227 22.9652 0.580017 24.1944 0.580017C25.4237 0.580017 26.4204 1.57227 26.4204 2.79601Z" fill="#5B7F81"/>
<path d="M52.2324 2.79601V23.8677C52.2324 25.0915 51.2356 26.0837 50.0064 26.0837C48.7771 26.0837 47.7804 25.0915 47.7804 23.8677V2.79601C47.7804 1.57227 48.7771 0.580017 50.0064 0.580017C51.2356 0.580017 52.2324 1.57227 52.2324 2.79601Z" fill="#CF8F3D"/>
<path d="M90.9618 56.2729C83.1096 56.2729 76.6869 49.8574 76.6869 42.0149V37.8424C76.6869 37.5684 76.6959 37.2959 76.7099 37.0259H105.214C105.228 37.2959 105.238 37.5682 105.238 37.8424V42.0149C105.238 49.8574 98.8141 56.2729 90.9618 56.2729Z" fill="#C13421"/>
<path d="M76.6866 37.8422C76.6866 37.5682 76.6956 37.2957 76.7096 37.0257H91.8013C91.8156 37.2957 91.8258 37.5679 91.8258 37.8422V42.0147C91.8258 47.4399 88.7506 52.1807 84.2558 54.5887C79.7614 52.1807 76.6866 47.4399 76.6866 42.0147V37.8422Z" fill="#FF4328"/>
<path d="M86.2828 11.1302C88.3241 14.792 91.1201 19.8064 86.6633 24.7704C86.2236 25.2602 85.6143 25.5097 85.0026 25.5097C84.4748 25.5097 83.9446 25.3237 83.5201 24.9459C82.6036 24.1304 82.5246 22.7297 83.3436 21.8169C85.4791 19.4384 84.7358 17.4882 82.3901 13.2807C80.4298 9.76471 77.9899 5.38872 81.2826 0.907481C82.0083 -0.0802667 83.4016 -0.295266 84.3936 0.426982C85.3858 1.14973 85.6021 2.53598 84.8761 3.52398C83.4173 5.50997 84.1843 7.36672 86.2828 11.1302ZM98.4433 11.1312C96.3453 7.36747 95.5781 5.51047 97.0373 3.52498C97.7633 2.53723 97.5473 1.15048 96.5551 0.427982C95.5631 -0.294766 94.1701 -0.0795168 93.4441 0.907981C90.1506 5.38947 92.5901 9.76546 94.5503 13.2817C96.8958 17.4892 97.6388 19.4394 95.5036 21.8177C94.6843 22.7304 94.7633 24.1312 95.6803 24.9467C96.1051 25.3247 96.6348 25.5102 97.1628 25.5102C97.7748 25.5102 98.3838 25.2607 98.8236 24.7709C103.28 19.8067 100.484 14.7925 98.4433 11.1312Z" fill="#FFBB5E"/>
<path d="M1.948 58.1962C1.948 56.9724 2.94475 55.9802 4.17399 55.9802H123.826C125.055 55.9802 126.052 56.9724 126.052 58.1962C126.052 59.4199 125.055 60.4122 123.826 60.4122H4.17399C2.94475 60.4122 1.948 59.4199 1.948 58.1962ZM123.826 123.568H4.17399C2.94475 123.568 1.948 124.56 1.948 125.784C1.948 127.007 2.94475 128 4.17399 128H123.826C125.055 128 126.052 127.008 126.052 125.784C126.052 124.56 125.055 123.568 123.826 123.568Z" fill="#663310"/>
<path d="M30.4282 27.8782V30.2182C30.4282 33.6432 27.6224 36.4442 24.1942 36.4442H24.1927C20.7645 36.4442 17.9587 33.6432 17.9587 30.2182V27.8782C17.9587 24.4532 20.7645 21.6522 24.1927 21.6522H24.1942C27.6224 21.652 30.4282 24.4532 30.4282 27.8782Z" fill="#415E5C"/>
<path d="M56.2401 27.8782V36.4444H43.7709V27.8782C43.7709 24.4535 46.5767 21.6522 50.0049 21.6522H50.0064C53.4349 21.652 56.2401 24.4535 56.2401 27.8782Z" fill="#B76700"/>
</g>
<defs>
<clipPath id="clip0_140_33">
<rect width="128" height="128" fill="white"/>
</clipPath>
</defs>
</svg>
