<svg width="128" height="128" viewBox="0 0 128 128" fill="none" xmlns="http://www.w3.org/2000/svg">
<path d="M102.4 2.13336H25.6V40.5334H102.4V2.13336Z" fill="white" stroke="#556080" stroke-width="2" stroke-miterlimit="10" stroke-linecap="round"/>
<path d="M96 8.53333H32V34.1333H96V8.53333Z" fill="#EFCE4A"/>
<path d="M110.933 113.067H17.0667C11.2 113.067 6.40002 108.267 6.40002 102.4C6.40002 96.5333 11.2 91.7333 17.0667 91.7333H110.933C116.8 91.7333 121.6 96.5333 121.6 102.4C121.6 108.267 116.8 113.067 110.933 113.067Z" fill="#3C8D43"/>
<path d="M17.0667 91.7333H20.7446C21.103 90.7285 21.3334 89.6619 21.3334 88.5333C21.3334 83.232 17.0347 78.9333 11.7334 78.9333C6.43203 78.9333 2.13336 83.232 2.13336 88.5333C2.13336 92.4224 4.45656 95.7547 7.78456 97.2629C9.6107 93.9883 13.0688 91.7333 17.0667 91.7333Z" fill="#23A24D"/>
<path d="M110.933 91.7333H107.255C106.897 90.7285 106.667 89.6619 106.667 88.5333C106.667 83.232 110.965 78.9333 116.267 78.9333C121.568 78.9333 125.867 83.232 125.867 88.5333C125.867 92.4224 123.544 95.7547 120.215 97.2629C118.389 93.9883 114.931 91.7333 110.933 91.7333Z" fill="#23A24D"/>
<path d="M110.933 80.5546V71.9082C110.933 61.649 102.618 53.3333 92.3584 53.3333H35.6416C25.3824 53.3333 17.0667 61.649 17.0667 71.9082V80.5546C19.6373 82.2762 21.3333 85.2053 21.3333 88.5333C21.3333 89.6618 21.1029 90.7285 20.7445 91.7333H107.253C106.897 90.7285 106.667 89.6618 106.667 88.5333C106.667 85.2053 108.363 82.2762 110.933 80.5546Z" fill="#30773A"/>
<path d="M19.2 119.467H21.3333V123.733C20.1536 123.733 19.2 124.687 19.2 125.867C19.2 127.046 20.1536 128 21.3333 128H25.6C26.7797 128 27.7333 127.046 27.7333 125.867C27.7333 124.687 26.7797 123.733 25.6 123.733V119.467H27.7333V113.067H19.2V119.467Z" fill="#C19B5A"/>
<path d="M108.8 119.467V113.067H100.267V119.467H102.4V123.733C101.22 123.733 100.267 124.687 100.267 125.867C100.267 127.046 101.22 128 102.4 128H106.667C107.846 128 108.8 127.046 108.8 125.867C108.8 124.687 107.846 123.733 106.667 123.733V119.467H108.8Z" fill="#C19B5A"/>
<path d="M44.1749 66.7584C43.3408 65.9243 41.9925 65.9243 41.1584 66.7584L36.8917 71.0251C36.4757 71.4411 36.2667 71.9872 36.2667 72.5333C36.2667 73.0795 36.4757 73.6256 36.8917 74.0416L41.1584 78.3083C41.5744 78.7243 42.1205 78.9333 42.6667 78.9333C43.2128 78.9333 43.7589 78.7243 44.1749 78.3083C45.0091 77.4742 45.0091 76.1259 44.1749 75.2917L41.4165 72.5333L44.1749 69.7749C45.0091 68.9408 45.0091 67.5925 44.1749 66.7584Z" fill="#153C1B"/>
<path d="M31.3749 66.7584C30.5408 65.9243 29.1925 65.9243 28.3584 66.7584C27.5243 67.5925 27.5243 68.9408 28.3584 69.7749L31.1168 72.5333L28.3584 75.2917C27.5243 76.1259 27.5243 77.4742 28.3584 78.3083C28.7744 78.7243 29.3205 78.9333 29.8667 78.9333C30.4128 78.9333 30.9589 78.7243 31.3749 78.3083L35.6416 74.0416C36.0576 73.6256 36.2667 73.0795 36.2667 72.5333C36.2667 71.9872 36.0576 71.4411 35.6416 71.0251L31.3749 66.7584Z" fill="#153C1B"/>
<path d="M71.9083 71.025C71.0741 70.1909 69.7259 70.1909 68.8917 71.025L64.6251 75.2917C64.2091 75.7077 64 76.2538 64 76.8C64 77.3461 64.2091 77.8922 64.6251 78.3082L68.8917 82.5749C69.3077 82.9909 69.8539 83.2 70.4 83.2C70.9461 83.2 71.4923 82.9909 71.9083 82.5749C72.7424 81.7408 72.7424 80.3925 71.9083 79.5583L69.1499 76.8L71.9083 74.0416C72.7424 73.2074 72.7424 71.8591 71.9083 71.025Z" fill="#153C1B"/>
<path d="M59.1083 71.025C58.2741 70.1909 56.9259 70.1909 56.0917 71.025C55.2576 71.8591 55.2576 73.2074 56.0917 74.0416L58.8501 76.8L56.0917 79.5583C55.2576 80.3925 55.2576 81.7408 56.0917 82.5749C56.5077 82.9909 57.0539 83.2 57.6 83.2C58.1461 83.2 58.6923 82.9909 59.1083 82.5749L63.3749 78.3082C63.7909 77.8922 64 77.3461 64 76.8C64 76.2538 63.7909 75.7077 63.3749 75.2917L59.1083 71.025Z" fill="#153C1B"/>
<path d="M96.8832 72.5333L99.6416 69.7749C100.476 68.9408 100.476 67.5925 99.6416 66.7584C98.8075 65.9243 97.4592 65.9243 96.6251 66.7584L92.3584 71.0251C91.9424 71.4411 91.7333 71.9872 91.7333 72.5333C91.7333 73.0795 91.9424 73.6256 92.3584 74.0416L96.6251 78.3083C97.0411 78.7243 97.5872 78.9333 98.1333 78.9333C98.6795 78.9333 99.2256 78.7243 99.6416 78.3083C100.476 77.4742 100.476 76.1259 99.6416 75.2917L96.8832 72.5333Z" fill="#153C1B"/>
<path d="M86.8416 66.7584C86.0075 65.9243 84.6592 65.9243 83.8251 66.7584C82.9909 67.5925 82.9909 68.9408 83.8251 69.7749L86.5835 72.5333L83.8251 75.2917C82.9909 76.1259 82.9909 77.4742 83.8251 78.3083C84.2411 78.7243 84.7872 78.9333 85.3333 78.9333C85.8795 78.9333 86.4256 78.7243 86.8416 78.3083L91.1083 74.0416C91.5243 73.6256 91.7333 73.0795 91.7333 72.5333C91.7333 71.9872 91.5243 71.4411 91.1083 71.0251L86.8416 66.7584Z" fill="#153C1B"/>
<path d="M91.1082 24.0918L84.7083 17.6918C83.8741 16.8576 82.5258 16.8576 81.6917 17.6918L76.8 22.5835L71.9082 17.6918C71.0741 16.8576 69.7258 16.8576 68.8917 17.6918L64 22.5835L59.1083 17.6918C58.2741 16.8576 56.9258 16.8576 56.0917 17.6918L51.2 22.5835L46.3083 17.6918C45.4741 16.8576 44.1258 16.8576 43.2917 17.6918L36.8917 24.0918C36.0576 24.9259 36.0576 26.2742 36.8917 27.1083C37.3077 27.5243 37.8538 27.7334 38.4 27.7334C38.9461 27.7334 39.4922 27.5243 39.9082 27.1083L44.8 22.2166L49.6917 27.1083C50.1077 27.5243 50.6538 27.7334 51.2 27.7334C51.7461 27.7334 52.2923 27.5243 52.7083 27.1083L57.6 22.2166L62.4917 27.1083C62.9077 27.5243 63.4538 27.7334 64 27.7334C64.5461 27.7334 65.0923 27.5243 65.5083 27.1083L70.4 22.2166L75.2917 27.1083C75.7077 27.5243 76.2538 27.7334 76.8 27.7334C77.3461 27.7334 77.8923 27.5243 78.3083 27.1083L83.2 22.2166L88.0917 27.1083C88.5077 27.5243 89.0538 27.7334 89.6 27.7334C90.1461 27.7334 90.6922 27.5243 91.1082 27.1083C91.9424 26.2742 91.9424 24.9259 91.1082 24.0918Z" fill="#ED8A19"/>
</svg>
