<svg width="26" height="26" viewBox="0 0 26 26" fill="none" xmlns="http://www.w3.org/2000/svg">
<g clip-path="url(#clip0_40_50)">
<path d="M14.4015 2.37269e-06C14.7837 2.37269e-06 15.1256 0.237902 15.2543 0.594102L16.1721 3.1382C16.501 3.2201 16.7831 3.302 17.0223 3.3878C17.2836 3.4814 17.6203 3.6231 18.0363 3.8168L20.1735 2.6858C20.348 2.59338 20.5477 2.56002 20.7427 2.59073C20.9377 2.62143 21.1175 2.71455 21.2551 2.8561L23.1349 4.7996C23.3845 5.0583 23.4547 5.4366 23.3143 5.7668L22.312 8.1159C22.4784 8.4214 22.611 8.6827 22.7124 8.9011C22.8216 9.139 22.9568 9.4666 23.118 9.8891L25.4541 10.8901C25.8051 11.0396 26.0222 11.3906 25.9988 11.7663L25.8272 14.4638C25.8155 14.639 25.7526 14.807 25.6463 14.9468C25.5399 15.0866 25.3949 15.1921 25.2292 15.2503L23.0166 16.0368C22.9529 16.3423 22.8866 16.6036 22.8164 16.8246C22.7032 17.1659 22.5739 17.5017 22.429 17.8308L23.5405 20.2878C23.619 20.4604 23.6401 20.6537 23.6008 20.8392C23.5615 21.0247 23.4638 21.1927 23.3221 21.3187L21.2083 23.2063C21.0691 23.3301 20.8954 23.4084 20.7104 23.4307C20.5255 23.453 20.3382 23.4182 20.1735 23.3311L17.9947 22.1767C17.6538 22.3572 17.3022 22.5165 16.9417 22.6538L15.9901 23.01L15.1451 25.35C15.0825 25.5214 14.9695 25.6698 14.8211 25.7758C14.6726 25.8818 14.4955 25.9405 14.3131 25.9441L11.8431 26C11.6559 26.0049 11.4717 25.9517 11.3159 25.8476C11.1602 25.7436 11.0405 25.5938 10.9734 25.4189L9.97761 22.7838C9.63785 22.6677 9.30145 22.542 8.96881 22.4068C8.69674 22.289 8.42878 22.162 8.16541 22.0259L5.69541 23.0815C5.53266 23.1509 5.35323 23.1716 5.17898 23.1409C5.00472 23.1102 4.84314 23.0295 4.71391 22.9086L2.88611 21.1939C2.75003 21.0668 2.65735 20.9001 2.62119 20.7175C2.58503 20.5348 2.60722 20.3454 2.68461 20.176L3.74671 17.862C3.60546 17.5879 3.4745 17.3087 3.35411 17.0248C3.21358 16.6774 3.08352 16.3258 2.96411 15.9705L0.637111 15.262C0.447962 15.2048 0.282984 15.0868 0.167798 14.9263C0.0526122 14.7657 -0.0063349 14.5716 0.000111499 14.3741L0.0911115 11.8768C0.0975889 11.7139 0.148489 11.5558 0.238308 11.4197C0.328126 11.2836 0.453445 11.1746 0.600711 11.1046L3.04211 9.932C3.15521 9.5173 3.25401 9.1949 3.34111 8.9596C3.46375 8.64532 3.59995 8.3365 3.74931 8.034L2.69111 5.798C2.6108 5.6282 2.58642 5.4373 2.62146 5.25276C2.6565 5.06823 2.74916 4.89955 2.88611 4.771L4.71131 3.0472C4.83926 2.92653 4.99935 2.84539 5.17233 2.81357C5.3453 2.78174 5.52379 2.80057 5.68631 2.8678L8.15371 3.887C8.42671 3.705 8.67371 3.5581 8.89731 3.4398C9.16381 3.2981 9.52001 3.1499 9.96851 2.99L10.8265 0.596702C10.8899 0.421551 11.0059 0.270248 11.1585 0.163453C11.3112 0.0566575 11.493 -0.000424126 11.6793 2.37269e-06H14.4015ZM13.0313 9.1247C10.8642 9.1247 9.10791 10.8602 9.10791 13.0026C9.10791 15.145 10.8642 16.8818 13.0313 16.8818C15.1971 16.8818 16.9534 15.145 16.9534 13.0026C16.9534 10.8602 15.1984 9.1247 13.0313 9.1247Z" fill="#C4C4C4"/>
</g>
<defs>
<clipPath id="clip0_40_50">
<rect width="26" height="26" fill="white"/>
</clipPath>
</defs>
</svg>
