<svg width="29" height="30" viewBox="0 0 29 30" fill="none" xmlns="http://www.w3.org/2000/svg">
<path d="M25.4716 8.75C25.2628 8.37578 24.9639 8.06392 24.6038 7.84484C24.2438 7.62577 23.8351 7.50696 23.4175 7.5H7.95079L7.24996 4.675C7.17915 4.4023 7.02117 4.16243 6.80176 3.99447C6.58235 3.8265 6.31442 3.74033 6.04163 3.75H3.62496C3.30449 3.75 2.99714 3.8817 2.77054 4.11612C2.54393 4.35054 2.41663 4.66848 2.41663 5C2.41663 5.33152 2.54393 5.64946 2.77054 5.88388C2.99714 6.1183 3.30449 6.25 3.62496 6.25H5.12329L8.45829 19.075C8.5291 19.3477 8.68708 19.5876 8.90649 19.7555C9.12591 19.9235 9.39383 20.0097 9.66663 20H20.5416C20.7648 19.9993 20.9834 19.9347 21.1732 19.8133C21.363 19.692 21.5166 19.5186 21.617 19.3125L25.5804 11.1125C25.7522 10.74 25.8321 10.3293 25.8132 9.91711C25.7942 9.50487 25.6768 9.10391 25.4716 8.75Z" fill="#C4C4C4"/>
<path d="M9.0625 26.25C10.0635 26.25 10.875 25.4105 10.875 24.375C10.875 23.3395 10.0635 22.5 9.0625 22.5C8.06148 22.5 7.25 23.3395 7.25 24.375C7.25 25.4105 8.06148 26.25 9.0625 26.25Z" fill="#C4C4C4"/>
<path d="M21.1459 26.25C22.1469 26.25 22.9584 25.4105 22.9584 24.375C22.9584 23.3395 22.1469 22.5 21.1459 22.5C20.1449 22.5 19.3334 23.3395 19.3334 24.375C19.3334 25.4105 20.1449 26.25 21.1459 26.25Z" fill="#C4C4C4"/>
</svg>
