<svg width="25" height="24" viewBox="0 0 25 24" fill="none" xmlns="http://www.w3.org/2000/svg">
<path d="M9.9256e-08 7.20086C-0.000153728 6.24407 0.178494 5.29684 0.525504 4.41454C0.872513 3.53223 1.38092 2.73255 2.02102 2.06223C2.66111 1.39191 3.42005 0.864402 4.25348 0.510528C5.08691 0.156654 5.97811 -0.0164837 6.875 0.0012347C7.9362 -0.00477632 8.98649 0.229849 9.95624 0.68956C10.926 1.14927 11.7931 1.82357 12.5 2.66776C13.2069 1.82357 14.074 1.14927 15.0438 0.68956C16.0135 0.229849 17.0638 -0.00477632 18.125 0.0012347C19.0219 -0.0164837 19.9131 0.156654 20.7465 0.510528C21.5799 0.864402 22.3389 1.39191 22.979 2.06223C23.6191 2.73255 24.1275 3.53223 24.4745 4.41454C24.8215 5.29684 25.0002 6.24407 25 7.20086C25 14.3418 17.0263 19.7336 12.5 24C7.98375 19.6976 9.9256e-08 14.3472 9.9256e-08 7.20086Z" fill="#C4C4C4"/>
</svg>
